<svg width="316" height="274" viewBox="0 0 316 274" fill="none" xmlns="http://www.w3.org/2000/svg">
<g filter="url(#filter0_d_302_5)">
<path d="M4 17.5C4 7.83502 11.835 0 21.5 0H196.5C206.165 0 214 7.83502 214 17.5V17.5C214 27.165 206.165 35 196.5 35H21.5C11.835 35 4 27.165 4 17.5V17.5Z" fill="#FF9686"/>
<path d="M4 17.5C4 7.83502 11.835 0 21.5 0H196.5C206.165 0 214 7.83502 214 17.5C214 27.165 206.165 35 196.5 35H21.5C11.835 35 4 27.165 4 17.5Z" fill="#FF9686"/>
<rect x="4" y="117" width="163" height="35" rx="17.5" fill="#FF9686"/>
<rect x="188" y="117" width="124" height="35" rx="17.5" fill="#67736F"/>
<rect x="4" y="58" width="64" height="35" rx="17.5" fill="#FF9686"/>
<rect x="89" y="58" width="217" height="35" rx="17.5" fill="#67736F"/>
<rect x="89" y="175" width="217" height="35" rx="17.5" fill="#67736F"/>
<rect x="4" y="175" width="64" height="35" rx="17.5" fill="#FF9686"/>
<path d="M4 248.5C4 238.835 11.835 231 21.5 231H196.5C206.165 231 214 238.835 214 248.5V248.5C214 258.165 206.165 266 196.5 266H21.5C11.835 266 4 258.165 4 248.5V248.5Z" fill="#FF9686"/>
<path d="M4 248.5C4 238.835 11.835 231 21.5 231H196.5C206.165 231 214 238.835 214 248.5C214 258.165 206.165 266 196.5 266H21.5C11.835 266 4 258.165 4 248.5Z" fill="#FF9686"/>
<rect x="231" width="75" height="35" rx="17.5" fill="#67736F"/>
<rect x="237" y="231" width="69" height="35" rx="17.5" fill="#67736F"/>
</g>
<defs>
<filter id="filter0_d_302_5" x="0" y="0" width="316" height="274" filterUnits="userSpaceOnUse" color-interpolation-filters="sRGB">
<feFlood flood-opacity="0" result="BackgroundImageFix"/>
<feColorMatrix in="SourceAlpha" type="matrix" values="0 0 0 0 0 0 0 0 0 0 0 0 0 0 0 0 0 0 127 0" result="hardAlpha"/>
<feOffset dy="4"/>
<feGaussianBlur stdDeviation="2"/>
<feColorMatrix type="matrix" values="0 0 0 0 0 0 0 0 0 0 0 0 0 0 0 0 0 0 0.25 0"/>
<feBlend mode="normal" in2="BackgroundImageFix" result="effect1_dropShadow_302_5"/>
<feBlend mode="normal" in="SourceGraphic" in2="effect1_dropShadow_302_5" result="shape"/>
</filter>
</defs>
</svg>
